<?xml version="1.0" encoding="utf-8"?>
<!-- Generator: Adobe Illustrator 26.5.0, SVG Export Plug-In . SVG Version: 6.00 Build 0)  -->
<svg version="1.1" id="Calque_1" xmlns="http://www.w3.org/2000/svg" xmlns:xlink="http://www.w3.org/1999/xlink" x="0px" y="0px"
	 viewBox="0 0 118 75" style="enable-background:new 0 0 118 75;" xml:space="preserve">
<style type="text/css">
	.st0{fill:#FFFFFF;}
	.st1{fill:#989898;}
	.st2{fill:none;}
	.st3{fill:#FEFEFE;}
	.st4{fill:#FCFCFC;}
	.st5{fill:#BEBEBE;}
	.st6{fill:#CACACA;}
	.st7{fill:#D5D5D5;}
	.st8{fill:#B9B9B9;}
	.st9{fill:#EAEAEA;}
	.st10{fill:#7A7A7A;}
	.st11{fill:#636363;}
	.st12{fill:#F7F7F7;}
	.st13{fill:#C1C1C1;}
	.st14{fill:#D4D4D4;}
	.st15{fill:#E3E3E3;}
	.st16{fill:#F4F4F4;}
	.st17{fill:#CFCFCF;}
	.st18{fill:#FAFAFA;}
	.st19{fill:#E5E5E5;}
	.st20{fill:#B5B5B5;}
	.st21{fill:#DADADA;}
	.st22{fill:#F5F5F5;}
	.st23{fill:#C3C3C3;}
	.st24{fill:#DBDBDB;}
	.st25{fill:#C5C5C5;}
	.st26{fill:#BABABA;}
	.st27{fill:#E9E9E9;}
	.st28{fill:#C6C6C6;}
	.st29{fill:#D1D1D1;}
	.st30{fill:#A0A0A0;}
	.st31{fill:#8C8C8C;}
	.st32{fill:#EBEBEB;}
	.st33{fill:#D6D6D6;}
	.st34{fill:#D7D7D7;}
	.st35{fill:#666666;}
	.st36{fill:#BDBDBD;}
	.st37{fill:#B1B1B1;}
	.st38{fill:#E0E0E0;}
	.st39{fill:#676767;}
	.st40{fill:#F6F6F6;}
	.st41{fill:#ECECEC;}
	.st42{fill:#CBCBCB;}
	.st43{fill:#F1F1F1;}
	.st44{fill:#C8C8C8;}
	.st45{fill:#B2B2B2;}
	.st46{fill:#D9D9D9;}
	.st47{fill:#D8D8D8;}
	.st48{fill:#A4A4A4;}
	.st49{fill:#A9A9A9;}
	.st50{fill:#E1E1E1;}
	.st51{fill:#ADADAD;}
	.st52{fill:#B3B3B3;}
	.st53{fill:#DFDFDF;}
	.st54{fill:#C4C4C4;}
	.st55{fill:#C0C0C0;}
	.st56{fill:#AAAAAA;}
	.st57{fill:#CCCCCC;}
	.st58{fill:#727272;}
	.st59{fill:#898989;}
	.st60{fill:#7C7C7C;}
	.st61{fill:#D2D2D2;}
	.st62{fill:#9E9E9E;}
	.st63{fill:#E7E7E7;}
	.st64{fill:#858585;}
	.st65{fill:#A8A8A8;}
	.st66{fill:#F2F2F2;}
	.st67{fill:#F8F8F8;}
	.st68{fill:#EDEDED;}
	.st69{fill:#EEEEEE;}
	.st70{fill:#E4E4E4;}
	.st71{fill:#DCDCDC;}
	.st72{fill:#C9C9C9;}
	.st73{fill:#CDCDCD;}
	.st74{fill:#828282;}
	.st75{fill:#8B8B8B;}
	.st76{fill:#7F7F7F;}
	.st77{fill:#999999;}
	.st78{fill:#909090;}
	.st79{fill:#D3D3D3;}
	.st80{fill:#949494;}
	.st81{fill:#CECECE;}
	.st82{fill:#AFAFAF;}
	.st83{fill:#6E6E6E;}
	.st84{fill:#C7C7C7;}
	.st85{fill:#6D6D6D;}
	.st86{fill:#979797;}
	.st87{fill:#7D7D7D;}
	.st88{fill:#EFEFEF;}
	.st89{fill:#BFBFBF;}
	.st90{fill:#ACACAC;}
	.st91{fill:#717171;}
	.st92{fill:#747474;}
	.st93{fill:#6B6B6B;}
	.st94{fill:#929292;}
	.st95{fill:#DEDEDE;}
	.st96{fill:#E2E2E2;}
	.st97{fill:#8A8A8A;}
	.st98{fill:#767676;}
	.st99{fill:#E6E6E6;}
	.st100{fill:#DDDDDD;}
	.st101{fill:#838383;}
	.st102{fill:#646464;}
	.st103{fill:#A5A5A5;}
	.st104{fill:#8E8E8E;}
	.st105{fill:#787878;}
	.st106{fill:#D0D0D0;}
	.st107{fill:#8D8D8D;}
	.st108{fill:#7E7E7E;}
	.st109{fill:#919191;}
	.st110{fill:#8F8F8F;}
	.st111{fill:#9A9A9A;}
	.st112{fill:#B7B7B7;}
	.st113{fill:#959595;}
	.st114{fill:#939393;}
	.st115{fill:#B6B6B6;}
	.st116{fill:#868686;}
	.st117{fill:#AEAEAE;}
	.st118{fill:#BBBBBB;}
	.st119{fill:#9C9C9C;}
	.st120{fill:#A1A1A1;}
	.st121{fill:#E8E8E8;}
	.st122{fill:#848484;}
	.st123{fill:#9B9B9B;}
	.st124{fill:#9D9D9D;}
	.st125{fill:#9F9F9F;}
	.st126{fill:#A6A6A6;}
	.st127{fill:#707070;}
	.st128{fill:#737373;}
	.st129{fill:#C2C2C2;}
	.st130{fill:#A3A3A3;}
	.st131{fill:#878787;}
	.st132{fill:#969696;}
	.st133{fill:#888888;}
	.st134{fill:#ABABAB;}
	.st135{fill:#A7A7A7;}
	.st136{fill:#B4B4B4;}
	.st137{fill:#BCBCBC;}
	.st138{fill:#808080;}
	.st139{fill:#F0F0F0;}
	.st140{fill:#B0B0B0;}
	.st141{fill:#A2A2A2;}
	.st142{fill:#818181;}
	.st143{fill:#777777;}
	.st144{fill:#757575;}
	.st145{fill:#B8B8B8;}
	.st146{fill:#6A6A6A;}
	.st147{fill:#797979;}
	.st148{fill:#F9F9F9;}
	.st149{fill:#F3F3F3;}
	.st150{fill:#6F6F6F;}
	.st151{fill:#5E5E5E;}
	.st152{fill:#575757;}
	.st153{fill:#FDFDFD;}
	.st154{fill:#7B7B7B;}
	.st155{fill:#5C5C5C;}
	.st156{fill:#FBFBFB;}
	.st157{fill:#616161;}
	.st158{fill:#686868;}
	.st159{fill:#6C6C6C;}
	.st160{fill:#5F5F5F;}
	.st161{fill:#696969;}
	.st162{fill:#656565;}
	.st163{fill:#4D4D4D;}
	.st164{fill:#626262;}
	.st165{fill:#606060;}
</style>
<g>
	<g>
		<path class="st0" d="M79.3,30.2c0.4,0.5,1,0.7,1.8,0.8c1,0,2.1-0.1,3.1-0.2c1.4-0.1,2.7-0.1,4.1-0.1c2.7-0.1,5.4-0.1,8-0.1
			c0.7,0,1.6,0,2-0.6c0.3-0.4,0.3-0.8,0.4-1.3c0.1-1.1,0.1-2.2,0-3.4c0-0.4-0.1-0.8-0.3-1c-0.3-0.3-0.9-0.4-1.3-0.4
			c-2.8,0.1-5.5,0.2-8.3,0.4c-0.6,0-1.1,0.1-1.7-0.1c-0.5-0.2-1-0.7-1-1.2c0-0.5,0.4-0.9,0.9-1.1c0.5-0.2,1-0.1,1.5-0.1
			c2.4,0.3,4.7,1.2,7.1,0.8c0.5-0.1,1-0.2,1.5-0.6c0.7-0.6,1-1.5,1.1-2.5c0.1-1.1,0-2.3-0.8-3C97,16.1,96.2,16,95.4,16
			c-1.2,0-2.4,0-3.6,0.2c-0.8,0.1-1.7,0.3-2.5,0.2c-0.8,0-1.7-0.3-2.3-0.8c-0.2-0.2-0.4-0.5-0.4-0.8c0-0.5,0.6-0.8,1.1-1
			c1.1-0.3,2.3-0.2,3.5-0.2l5.3,0.3c0.6,0,1.3,0,1.9-0.3c0.5-0.4,0.7-1,0.8-1.6c0.1-0.9,0.1-1.8-0.2-2.6c-0.2-0.6-0.5-1.2-1-1.6
			c-0.9-0.8-2.2-0.8-3.3-0.7c-2.7,0.1-5.5,0.2-8.2,0.2c-1.4,0-2.8-0.1-4.2-0.2c-1.3-0.1-2.3,0-3,1.1c-0.4,0.6-0.5,1.3-0.6,2
			c-0.3,2.7,0.5,5.4,0.5,8c0,1.8,0,3.6-0.2,5.4c-0.1,1.2-0.4,2.4-0.4,3.7C78.6,28.5,78.8,29.6,79.3,30.2"/>
		<path class="st0" d="M69.9,7.9c-2.4,1.5-2.9,5.1-4.7,7.1c-0.1,0.1-0.3,0.3-0.5,0.3c-0.4,0.1-0.7-0.4-0.9-0.8
			c-0.7-1.5-1.5-3-2.2-4.5c-0.3-0.6-0.6-1.2-1-1.7c-1.6-1.5-4.7-1.2-6.7-1.1c-0.7,0-1.5,0.1-1.9,0.8c-0.4,0.7-0.3,1.5,0,2.2
			c1,2.5,2,4.9,2.2,7.6c0.2,2.7-0.2,5.4-1.4,7.9c-0.5,0.9-1.1,1.8-1.3,2.8c-0.2,0.6-0.2,1.3,0.3,1.7c0.2,0.2,0.6,0.3,0.9,0.4
			c1.4,0.3,2.9,0.4,4.4,0.2c0.8-0.1,1.7-0.4,2.2-1.1c0.3-0.4,0.3-0.9,0.4-1.4c0.1-2.3-0.6-4.5-0.6-6.7c0-0.5,0-2.2,0.8-1.9
			c0.6,0.2,1,1.4,1.3,1.9c0.4,0.8,0.8,1.6,1.2,2.4c0.3,0.6,0.5,1.2,0.9,1.6c0.6,0.7,1.4,1,2.3,0.6c1.3-0.6,2-1.7,2.7-3
			c0.5-1,0.6-2.6,1.4-3.3c0.6-0.5,0.8,0.5,0.8,0.9c0,1.6-0.1,3.2-0.2,4.9c-0.1,1.3-0.7,3.2,0.3,4.2c0.4,0.4,0.9,0.6,1.5,0.6
			c0.7,0.1,1.4,0,2-0.1c1.1-0.2,2.7,0,3.6-0.8c0.5-0.4,0.6-1.1,0.7-1.7c0.2-3.2,0.3-6.5,0.2-9.7c-0.1-3-0.4-6.1-0.6-9.1
			c-0.1-1-0.4-1.6-1.4-1.8c-0.9-0.2-1.8-0.3-2.7-0.3c-1.2-0.1-2.5,0-3.6,0.6C69.9,7.8,69.9,7.9,69.9,7.9"/>
		<g>
			<path class="st0" d="M48.7,32.1c-1.4,0.9-0.8,2.8-0.4,4.1c0.2,0.6,0.3,1.3,0.3,2c-0.2,3-4.4,2.5-6.2,1.5c-0.5-0.3-1-0.7-1.2-1.3
				c-0.1-0.7,0.3-1.4,0-2.1c-0.3-0.8-1.2-0.8-1.9-0.5c-1,0.4-1.5,1.1-1.6,2.2c-0.3,3.1-1.6,5.8-2.5,8.7c-0.5,1.4-0.8,2.7-1.1,4.2
				c-0.2,1.2-0.6,2.8,0.1,3.8c0.4,0.7,1.3,1,2,1.1c0.9,0.1,1.9,0,2.9-0.2c0.7-0.1,1.4-0.4,1.9-0.9c0.4-0.5,0.4-1,0.4-1.5
				c-0.1-1.9-2-6.6,1.2-6.8c1.5-0.1,2.9-0.2,4.3,0.1c0.5,0.1,1,0.2,1.3,0.6c0.7,1,0,2.9-0.2,4c-0.2,1.4-0.5,3.7,1.4,3.7
				c1.1,0,2.3,0,3.4,0c1.5,0,3,0.5,3.2-1.3c0.3-2.9-0.3-5.8-0.3-8.8c0-1.9,0-3.8,0.2-5.7c0.2-1.7,0.7-3.5,0.8-5.2
				c0-0.5,0-0.9-0.2-1.3c-0.8-1.3-3-0.9-4.3-0.9C51,31.6,49.7,31.5,48.7,32.1"/>
			<path class="st0" d="M77.1,32.1c-0.1-0.1-0.2-0.2-0.3-0.3c-0.6-0.4-1.3-0.5-2.1-0.5c-1.4,0-2.7,0.1-4.1,0.1
				c-2.5,0.1-4.9,0.2-7.4,0.3c-1.2,0-2.4,0.1-3.6,0.1c-1,0-1.8,0.2-2.2,1.3c-0.3,0.6-0.3,1.3-0.2,2c0.1,1,0.3,2.2,1.1,2.7
				c0.8,0.5,1.8,0.5,2.7,0.4c2.2-0.2,4.4-0.2,6.6-0.2c0.6,0,1.2,0,1.7,0.4c0.5,0.3,0.8,1.1,0.4,1.5c-0.2,0.2-0.5,0.3-0.8,0.4
				c-1.2,0.3-2.6,0.2-3.8,0.1c-1.3-0.1-2.6-0.2-3.8,0.1c-1.3,0.3-2.5,1.1-2.9,2.3c-0.5,1.2,0.1,2.8,1.3,3.2c0.6,0.2,1.2,0.1,1.8,0
				c2.3-0.5,4.8-1.3,7-0.4c0.5,0.2,1,0.5,1.3,1c0.3,0.4,0.4,1.1,0.2,1.5c-0.2,0.5-0.8,0.8-1.3,0.9c-0.5,0.1-1.1,0-1.7-0.1
				c-1.6-0.2-3.4-0.5-5-0.5c-0.9,0-1.7,0-2.6,0.1c-0.7,0.1-1.6,0.1-2.2,0.6c-0.5,0.5-0.6,1.1-0.5,1.8c0,0.8,0.2,1.7,0.4,2.5
				c0.2,0.6,0.5,1.2,1.1,1.4c0.4,0.2,0.8,0.2,1.2,0.2c3.2,0,6.4,0,9.6,0c1.6,0,3.3,0,4.9,0c1.1,0,3.1,0.4,3.7-0.8
				c0.3-0.6,0.2-1.2,0.2-1.8c-0.1-2.5,0.2-5,0.3-7.6c0.1-2-0.1-4.1-0.3-6.1c-0.1-1.2-0.1-2.4,0-3.6C77.8,34,77.9,32.9,77.1,32.1"/>
			<path class="st0" d="M90.1,31.7c-3.2-0.1-6.4,0-9.7-0.1c-0.5,0-1.1,0.1-1.4,0.5c-0.8,1-0.6,2.6-0.5,3.7c0.3,3.2,0.4,6.5,0.3,9.7
				c0,1.6-0.1,3.2-0.2,4.8c-0.1,1.2-0.4,2.7,0.3,3.8c0.2,0.3,0.6,0.6,0.9,0.7c1.8,0.8,5.2,1.5,6.4-0.5c0.8-1.3,0.1-3.1,0.1-4.5
				c0-0.6,0-1.3,0.6-1.6c0.6-0.3,1.3,0.3,1.7,0.8c1.6,2.1,2.1,4.9,4.7,6.1c1.2,0.6,2.6,0.7,3.9,0.6c2.3-0.3,4.1-1.4,3.1-4
				c-0.4-0.9-1.1-1.7-1.8-2.5c-0.9-1-2.2-2.1-1.4-3.5c0.6-1,1.6-1.7,2.2-2.7c0.8-1.4,1.3-2.9,1-4.5c-0.2-1.5-0.9-3-2-4.1
				c-1.9-1.8-4.5-2.6-7.1-2.7C91,31.7,90.5,31.7,90.1,31.7 M92.9,40.5c0,0.4-0.1,0.7-0.4,1.1c-0.3,0.4-0.7,0.7-1.2,0.9
				c-1.2,0.6-4.2,1.4-5-0.3c-0.2-0.4-0.2-0.9-0.2-1.3c0.1-0.6,0.2-1.2,0.4-1.7C87.5,36.6,92.8,38.2,92.9,40.5"/>
			<path class="st0" d="M35.8,36.1c-0.8-0.3-1.8-0.3-2.4-0.3c-1-0.1-1.9,0-2.9-0.1c-0.5,0-1.1,0-1.4,0.4c-0.5,0.6-0.4,1.8-0.5,2.6
				c-0.1,0.9-0.3,1.9-0.9,2.7c-0.6,0.9-1.7-2.5-1.9-2.9c-0.4-1-0.8-2.1-1-3.1c-0.2-0.9-0.3-1.8-0.8-2.6c-0.8-1.4-2.8-1.6-4.2-1.6
				c-2,0.1-3.3,1-3.7,3c-0.4,2-0.2,4.2-1,6c-0.7,1.5-1.9,2.1-2.7,0.3c-0.7-1.7-1-3.6-1.4-5.5c-0.3-1.8-0.4-3.8-2.8-3.6
				c-1.6,0.1-3.1,0.1-4.6,0c-2.1-0.1-1.2,2.5-0.7,3.6c1.8,4.6,3.1,9.5,4.6,14.3c0.4,1.4,0.9,5.5,2.6,5.6c1.3,0,2.5,0.1,3.8,0.1
				c1.6,0,2.6-0.4,3.2-1.9c1.1-2.6,1.1-5.7,2.3-8.3c0.2-0.3,0.4-0.7,0.8-0.8c0.5,0,0.8,0.5,0.9,0.9c0.7,1.7,1,3.5,1.3,5.3
				c0.4,2.2,0.4,4.6,3.1,4.8c1.4,0.1,3,0.1,4.4-0.1c2.1-0.3,2.4-2.2,2.9-3.9c0.4-1.5,0.9-3,1.3-4.5c0.8-2.8,2.1-5.5,2.5-8.4
				C37,37.3,36.8,36.5,35.8,36.1"/>
		</g>
		<path class="st0" d="M115.2,48.8C115.2,48.7,115.1,48.7,115.2,48.8c-0.4-0.3-0.9-0.3-1.3-0.3c-3.1,0-6.2,0-9.3,0
			c-0.3,0-0.6,0-0.9-0.1c-0.6-0.3-0.7-1.3-0.2-1.9c0.5-0.6,1.2-0.7,2-0.7c2.6,0.1,6.7,1.9,8.9-0.2c0.9-0.8,0.8-2.7,0.5-3.8
			c-0.4-1.7-1.6-1.9-3.2-1.6c-2.2,0.4-4.5,0.3-6.8,0.3c-0.6,0-1.4-0.1-1.7-0.7c-0.3-0.6,0.1-1.4,0.7-1.7c0.6-0.3,1.3-0.3,2-0.3
			c2.6,0.1,5.1,0.3,7.7,0.4c0.6,0,1.2,0,1.7-0.3c0.4-0.3,0.5-0.9,0.6-1.4c0.1-0.8,0.1-1.6,0-2.4c-0.2-1.5-0.8-2.4-2.3-2.4
			c-4.7-0.2-9.7-0.8-14.4-0.4c-2.7,0.2-0.1,2.2,0.6,3.3c0.8,1.3,1.4,2.8,1.5,4.3c0.4,3.4-0.8,4.6-2.9,7c-0.8,1,0.4,2.1,1,2.8
			c0.5,0.6,1,1.2,1.4,1.9c0.5,0.7,1,1.3,0.9,2.3c0,0.5-0.2,1,0,1.5c0.6,1.5,3.3,1.3,4.6,1.3c1.5,0,3.1-0.2,4.6-0.1
			c0.9,0.1,1.8,0.2,2.7,0c1.2-0.3,1.9-1.3,2.2-2.4C116.1,51.9,116.2,49.5,115.2,48.8"/>
		<path class="st0" d="M36,2.9c-2.2,0-4.4,0.3-6.5,1.1c-1.3,0.5-2.6,1.1-3.8,1.8c-0.9,0.5-1.7,1.1-2.4,1.8c-0.1,0.1-0.3,0.3-0.3,0.5
			c-0.1,0.3,0,0.5,0.2,0.8c0.5,0.9,0.4,1.5,0.1,2.5c-0.3,1-0.9,1.9-1.6,2.7c-0.3,0.3-0.6,0.6-0.9,0.9c-0.5,0.8-0.2,1.6,0.4,2.1
			c1.8,1.5,3.2,3.2,3.5,5.6c0.3,2.2-0.6,3.8-1.7,5.7c-0.2,0.3-0.4,0.7-0.3,1.1c0.1,0.4,0.4,0.7,0.6,0.9c1.6,1.5,3.5,2.7,5.5,3.5
			c2.3,0.9,4.7,1.4,7.2,1.4c4.9,0,9.8-1.8,13-5.5c1-1.1,1.8-2.3,2.4-3.6c1.1-2.2,1.6-4.6,1.6-7V19C53.1,9.3,44.8,3,36,2.9
			 M44.7,22.8c-0.2,3.9-2.7,7.8-6.7,8.8c-3.9,1-8.3-1-10-4.6c-3.7-7.4,5.8-16.2,12.9-11.9C43.7,16.8,44.8,19.8,44.7,22.8"/>
		<path class="st0" d="M23.8,23.2c0-4.6-5-6.1-8.8-7.1c-1.1-0.3-2.3-0.6-3.3-1c-1.9-0.7-0.4-1.9,0.9-1.9c1.7,0,3.4,0.3,4.8,1.2
			c0.4,0.3,0.8,0.6,1.3,0.6c0.5,0,1-0.3,1.4-0.6c1.4-1.2,4.1-4.9,1-5.8c-3.1-0.9-6.5-1.6-9.8-1.2c-3.1,0.4-6.4,2.1-7.8,5
			c-1.4,2.9,0,6,2.7,7.7c2.7,1.7,5.9,1.8,8.8,2.8c0.9,0.3,1.1,1,0.1,1.4c-2.1,1-4.9,0-6.8-1c-0.7-0.3-1.3-0.7-2-0.9
			c-1.8-0.4-3.2,1.5-3.9,3c-0.3,0.6-0.5,1.4-0.2,2.1c0.6,1.3,2.7,1.8,3.9,2.2c2.4,0.6,5,1.2,7.5,1.1c4.2,0,9.6-2.3,10.2-7
			C23.8,23.8,23.8,23.5,23.8,23.2"/>
		<path class="st0" d="M49.6,5.7c0.2-0.3,0.3-0.5,0.5-0.8c0,0,0,0,0,0c0,0,0,0,0,0c0,0,0.1-0.1,0.1-0.1c0-0.1,0.1-0.1,0.1-0.2
			c0.1-0.1,0.2-0.2,0.3-0.4c0.1-0.1,0.1-0.4,0-0.5c-0.1-0.1-0.4-0.1-0.5,0c-0.5,0.5-0.9,1-1.2,1.6c-0.1,0.2,0,0.4,0.1,0.5
			C49.2,6,49.4,5.9,49.6,5.7"/>
		<path class="st0" d="M51.1,6.5c0.5-0.4,0.9-0.8,1.4-1.2c0.1-0.1,0.1-0.4,0-0.5c-0.2-0.1-0.4-0.1-0.5,0c-0.5,0.4-0.9,0.8-1.4,1.2
			c-0.1,0.1-0.1,0.4,0,0.5C50.7,6.6,50.9,6.6,51.1,6.5"/>
		<path class="st0" d="M2.1,13.2c0.3-1.4,1.1-2.6,2.2-3.4c0.2-0.1,0.2-0.3,0.1-0.5C4.4,9.2,4.2,9.2,4,9.3c-1.3,0.9-2.3,2.2-2.6,3.8
			C1.3,13.5,2,13.7,2.1,13.2"/>
		<path class="st0" d="M1,11.8c0.3-0.4,0.6-0.8,0.9-1.2c0.1-0.1,0.1-0.2,0-0.3c0-0.1-0.1-0.2-0.2-0.2c-0.1,0-0.2-0.1-0.3,0
			c-0.1,0-0.2,0.1-0.2,0.2c-0.3,0.4-0.6,0.8-0.9,1.2c-0.1,0.1-0.1,0.2,0,0.3c0,0.1,0.1,0.2,0.2,0.2c0.1,0,0.2,0.1,0.3,0
			C0.9,11.9,0.9,11.9,1,11.8"/>
		<path class="st0" d="M4.2,45.4c0.6,1.4,1.1,2.9,1.6,4.4c0.1,0.4,0.9,0.3,0.7-0.2c-0.5-1.5-1-2.9-1.6-4.4c-0.1-0.2-0.2-0.3-0.5-0.3
			C4.3,45,4.1,45.3,4.2,45.4"/>
		<path class="st0" d="M3.4,48.6c0.1,0.2,0.2,0.3,0.3,0.5c0,0,0-0.1,0-0.1c0.1,0.2,0.1,0.4,0.2,0.6c0,0,0-0.1,0-0.1c0,0,0,0,0,0
			c0,0.1,0,0.2,0.1,0.3c0.1,0.1,0.2,0.1,0.3,0.1c0.1,0,0.2,0,0.3-0.1c0.1-0.1,0.1-0.2,0.1-0.3c0-0.2-0.1-0.5-0.2-0.7
			c-0.1-0.2-0.2-0.4-0.4-0.6C4,48.1,3.9,48,3.8,48c-0.1,0-0.2,0-0.3,0c-0.1,0.1-0.1,0.1-0.2,0.2C3.3,48.4,3.3,48.5,3.4,48.6"/>
		<path class="st0" d="M89.6,54.3c0.5,0.6,1.1,1.1,1.8,1.5c0.2,0.1,0.4,0,0.5-0.1c0.1-0.2,0-0.4-0.1-0.5c-0.2-0.1-0.3-0.2-0.5-0.3
			c-0.1-0.1-0.2-0.1-0.2-0.2c0,0,0,0-0.1,0c0,0,0,0,0,0c0,0-0.1-0.1-0.1-0.1c-0.3-0.2-0.5-0.5-0.8-0.8c-0.1-0.1-0.4-0.1-0.5,0
			C89.4,53.9,89.4,54.1,89.6,54.3"/>
		<path class="st0" d="M88.6,55.9c0.4,0.4,0.9,0.7,1.4,0.9c0.1,0,0.2,0,0.3,0c0.1,0,0.1-0.1,0.2-0.2c0-0.1,0-0.2,0-0.3
			c-0.1-0.1-0.1-0.1-0.2-0.2c0,0,0,0,0,0c0,0,0.1,0,0,0c0,0-0.1,0-0.1,0C90,56,90,56,89.9,56c-0.1-0.1-0.2-0.1-0.3-0.2
			c-0.1-0.1-0.2-0.1-0.3-0.2c0,0,0,0,0,0c0,0,0,0,0,0c0,0-0.1,0-0.1-0.1c0,0-0.1-0.1-0.1-0.1c-0.1-0.1-0.4-0.2-0.5,0
			C88.4,55.6,88.4,55.8,88.6,55.9"/>
		<path class="st0" d="M59.1,56.4c-0.5,0.4-1,0.7-1.6,1.1c-0.2,0.1-0.2,0.3-0.1,0.5c0.1,0.2,0.3,0.2,0.5,0.1c0.5-0.4,1-0.7,1.6-1.1
			c0.2-0.1,0.2-0.3,0.1-0.5C59.5,56.4,59.3,56.3,59.1,56.4"/>
		<path class="st0" d="M60.9,57.3c0.2,0.2,0.3,0.5,0.5,0.7c0.1,0.1,0.1,0.1,0.2,0.2c0.1,0,0.2,0,0.3,0c0.1-0.1,0.1-0.1,0.2-0.2
			c0-0.1,0-0.2,0-0.3c-0.2-0.2-0.3-0.5-0.5-0.7c-0.1-0.1-0.1-0.1-0.2-0.2c-0.1,0-0.2,0-0.3,0c-0.1,0.1-0.1,0.1-0.2,0.2
			C60.9,57.1,60.9,57.2,60.9,57.3"/>
		<path class="st0" d="M64.8,57.5c0.2,0,0.3,0.1,0.5,0.1c0,0,0.1,0,0.1,0c0,0,0.1,0,0.1,0c0,0,0.1-0.1,0.1-0.1c0,0,0.1-0.1,0.1-0.1
			c0-0.1,0-0.2,0-0.3c0-0.1-0.1-0.1-0.2-0.2c-0.2,0-0.3-0.1-0.5-0.1c0,0-0.1,0-0.1,0c0,0-0.1,0-0.1,0c0,0-0.1,0.1-0.1,0.1
			c0,0-0.1,0.1-0.1,0.1c0,0.1,0,0.2,0,0.3C64.7,57.4,64.7,57.5,64.8,57.5"/>
		<path class="st0" d="M64.2,12.9c-0.3-0.7-0.5-1.4-0.8-2.1c-0.1-0.2-0.3-0.3-0.5-0.3c-0.2,0.1-0.3,0.3-0.3,0.5l0.8,2.1
			c0.1,0.2,0.3,0.3,0.5,0.3C64.1,13.3,64.3,13.1,64.2,12.9"/>
		<path class="st0" d="M65.7,13.4c0.5-1.2,0.9-2.4,1.1-3.7c0-0.2-0.1-0.4-0.3-0.5c-0.2,0-0.4,0.1-0.5,0.3c-0.2,1.3-0.6,2.5-1.1,3.7
			c-0.1,0.2,0.1,0.4,0.3,0.5C65.4,13.7,65.6,13.5,65.7,13.4"/>
		<path class="st0" d="M46.2,33.2c-0.3,0.7-0.4,1.6-0.1,2.3c0.1,0.2,0.3,0.3,0.5,0.3c0.2-0.1,0.3-0.3,0.3-0.5c0-0.1,0-0.2-0.1-0.2
			c0,0,0-0.1,0-0.1c0,0,0-0.1,0,0c0-0.2,0-0.3,0-0.5c0,0,0-0.1,0-0.1c0,0,0-0.2,0-0.1c0-0.1,0-0.2,0-0.2c0-0.1,0-0.2,0.1-0.2
			c0,0,0-0.1,0-0.1c0,0,0.1-0.1,0-0.1c0.1-0.2,0.1-0.4-0.1-0.5C46.5,33,46.3,33,46.2,33.2"/>
		<path class="st0" d="M44.8,34.8c-0.3,0.8,0,1.8,0.6,2.4c0.1,0.1,0.4,0.1,0.5,0c0.1-0.1,0.2-0.4,0-0.5c-0.1-0.1-0.1-0.1-0.2-0.2
			c0,0,0,0,0,0c0,0,0,0,0,0c0,0,0-0.1-0.1-0.1c0,0,0-0.1-0.1-0.1c0,0,0-0.1,0-0.1c0-0.1-0.1-0.2-0.1-0.3c0,0,0-0.1,0-0.1
			c0,0,0-0.1,0,0c0,0,0,0,0,0c0-0.1,0-0.2,0-0.3c0,0,0-0.1,0-0.1c0-0.1,0,0.1,0,0c0,0,0,0,0-0.1c0-0.1,0-0.2,0.1-0.3
			c0.1-0.2-0.1-0.4-0.3-0.5C45,34.5,44.8,34.6,44.8,34.8"/>
		<path class="st0" d="M116.9,39.1c0.4-0.1,0.7-0.3,1.1-0.4c0.1,0,0.2-0.1,0.2-0.2c0-0.1,0.1-0.2,0-0.3c-0.1-0.2-0.3-0.3-0.5-0.3
			c-0.4,0.1-0.7,0.3-1.1,0.4c-0.1,0-0.2,0.1-0.2,0.2c0,0.1-0.1,0.2,0,0.3C116.5,39,116.7,39.1,116.9,39.1"/>
		<path class="st0" d="M116.2,41.8l1,0.4c0.1,0,0.2,0,0.3,0c0.1,0,0.1-0.1,0.2-0.2c0-0.1,0-0.2,0-0.3c0,0,0,0-0.1-0.1
			c0,0-0.1-0.1-0.2-0.1c-0.3-0.1-0.7-0.3-1-0.4c-0.1,0-0.2,0-0.3,0c-0.1,0-0.1,0.1-0.2,0.2c0,0.1,0,0.2,0,0.3c0,0,0,0,0.1,0.1
			C116.1,41.7,116.1,41.8,116.2,41.8"/>
		<path class="st0" d="M99.1,23.3c0.8,1.8,1.3,3.7,1.4,5.7c0,0.5,0.8,0.5,0.7,0c-0.1-2.1-0.6-4.1-1.5-6c-0.1-0.2-0.3-0.2-0.5-0.1
			C99.1,22.9,99,23.2,99.1,23.3"/>
		<path class="st0" d="M102,24.2c0.3,0.7,0.4,1.4,0.4,2.1c0,0.2,0.2,0.4,0.4,0.4c0.2,0,0.4-0.2,0.4-0.4c0-0.8-0.1-1.6-0.4-2.3
			c-0.1-0.2-0.3-0.3-0.5-0.3C102.1,23.8,101.9,24,102,24.2"/>
	</g>
	<g>
		<path class="st0" d="M6.4,63.3h0.6l3.8,8.3h-0.7l-1-2.3H4.2l-1,2.3H2.5L6.4,63.3z M8.8,68.8L6.6,64l-2.2,4.8H8.8z"/>
		<polygon class="st0" points="18.1,63.4 18.7,63.4 24.4,70.6 24.4,63.4 25,63.4 25,71.6 24.5,71.6 18.7,64.3 18.7,71.6 18.1,71.6 
					"/>
		<rect x="33.2" y="63.4" class="st0" width="0.6" height="8.2"/>
		<polygon class="st0" points="42,63.4 42.6,63.4 45.9,68.3 49.2,63.4 49.8,63.4 49.8,71.6 49.2,71.6 49.2,64.5 45.9,69.2 
			45.9,69.2 42.6,64.5 42.6,71.6 42,71.6 		"/>
		<path class="st0" d="M61,63.3h0.6l3.8,8.3h-0.7l-1-2.3h-4.9l-1,2.3h-0.6L61,63.3z M63.4,68.8L61.3,64l-2.2,4.8H63.4z"/>
		<polygon class="st0" points="73.8,64 70.9,64 70.9,63.4 77.2,63.4 77.2,64 74.4,64 74.4,71.6 73.8,71.6 		"/>
		<rect x="84.7" y="63.4" class="st0" width="0.6" height="8.2"/>
		<path class="st0" d="M93.1,67.5L93.1,67.5c0-2.3,1.7-4.3,4.2-4.3c2.5,0,4.1,2,4.1,4.2v0c0,2.2-1.7,4.3-4.2,4.3
			C94.7,71.8,93.1,69.8,93.1,67.5 M100.7,67.5L100.7,67.5c0-2.1-1.5-3.7-3.5-3.7c-2,0-3.5,1.6-3.5,3.7v0c0,2,1.5,3.7,3.5,3.7
			C99.3,71.2,100.7,69.6,100.7,67.5"/>
		<polygon class="st0" points="109.1,63.4 109.7,63.4 115.4,70.6 115.4,63.4 116,63.4 116,71.6 115.5,71.6 109.7,64.3 109.7,71.6 
			109.1,71.6 		"/>
	</g>
</g>
</svg>
